<?xml version="1.0" encoding="UTF-8" standalone="no"?>
<!DOCTYPE svg PUBLIC "-//W3C//DTD SVG 1.1//EN"
 "http://www.w3.org/Graphics/SVG/1.1/DTD/svg11.dtd">
<!-- Generated by graphviz version 2.38.0 (20140413.2041)
 -->
<!-- Title: %3 Pages: 1 -->
<svg width="596pt" height="338pt"
 viewBox="0.00 0.00 595.59 338.39" xmlns="http://www.w3.org/2000/svg" xmlns:xlink="http://www.w3.org/1999/xlink">
<g id="graph0" class="graph" transform="scale(1 1) rotate(0) translate(4 334.392)">
<title>%3</title>
<polygon fill="white" stroke="none" points="-4,4 -4,-334.392 591.588,-334.392 591.588,4 -4,4"/>
<text text-anchor="middle" x="293.794" y="-34" font-family="Times New Roman,serif" font-size="100.00">identificador</text>
<!-- A1 -->
<g id="node1" class="node"><title>A1</title>
<ellipse fill="#b1ddf0" stroke="black" cx="465.588" cy="-201.196" rx="79.3829" ry="79.3829"/>
<ellipse fill="none" stroke="black" cx="465.588" cy="-201.196" rx="83.3924" ry="83.3924"/>
<text text-anchor="middle" x="465.588" y="-193.096" font-family="Times New Roman,serif" font-size="32.00">A1</text>
</g>
<!-- A1&#45;&gt;A1 -->
<g id="edge2" class="edge"><title>A1&#45;&gt;A1</title>
<path fill="none" stroke="black" d="M430.831,-277.103C434.868,-291.891 446.453,-302.392 465.588,-302.392 480.387,-302.392 490.671,-296.11 496.438,-286.422"/>
<polygon fill="black" stroke="black" points="499.707,-287.679 500.344,-277.103 493.251,-284.973 499.707,-287.679"/>
<text text-anchor="middle" x="465.588" y="-310.392" font-family="Times New Roman,serif" font-size="25.00">[A&#45;Za&#45;z])([A&#45;Za&#45;z] |d | _ </text>
</g>
<!-- A0 -->
<g id="node2" class="node"><title>A0</title>
<ellipse fill="lightgrey" stroke="black" cx="79.196" cy="-201.196" rx="79.3924" ry="79.3924"/>
<text text-anchor="middle" x="79.196" y="-193.096" font-family="Times New Roman,serif" font-size="32.00">A0</text>
</g>
<!-- A0&#45;&gt;A1 -->
<g id="edge1" class="edge"><title>A0&#45;&gt;A1</title>
<path fill="none" stroke="black" d="M158.447,-201.196C220.227,-201.196 306.592,-201.196 371.845,-201.196"/>
<polygon fill="black" stroke="black" points="372.129,-204.696 382.129,-201.196 372.129,-197.696 372.129,-204.696"/>
<text text-anchor="middle" x="270.392" y="-209.196" font-family="Times New Roman,serif" font-size="25.00">[A&#45;Za&#45;z])([A&#45;Za&#45;z]</text>
</g>
</g>
</svg>
